<svg width="43" height="43" viewBox="0 0 43 43" fill="none" xmlns="http://www.w3.org/2000/svg">
<g clip-path="url(#clip0_104_2755)">
<path d="M16.8137 23.2889C12.3121 20.7021 10.7584 14.9492 13.3451 10.4477C15.9319 5.94609 21.6848 4.39238 26.1864 6.9791C30.6879 9.56582 32.2416 15.3188 29.6549 19.8203C28.8235 21.2648 27.6309 22.4574 26.1864 23.2889C32.0149 25.0777 36.3401 29.9908 37.3731 35.9957C41.0012 32.04 43.0084 26.8666 43 21.5C43 9.62461 33.3754 0 21.5 0C9.62464 0 2.62487e-05 9.62461 2.62487e-05 21.5C-0.00837219 26.8666 1.99885 32.04 5.62698 35.9957C6.65999 29.9908 10.9852 25.0777 16.8137 23.2889Z" fill="url(#paint0_linear_104_2755)"/>
<path d="M34.2156 38.7C34.2156 31.6873 28.5131 25.9848 21.5004 25.9848C14.4877 25.9848 8.78516 31.6873 8.78516 38.7V38.8428C16.3521 44.3941 26.6402 44.3941 34.2072 38.8428C34.2156 38.7924 34.2156 38.7504 34.2156 38.7Z" fill="url(#paint1_linear_104_2755)"/>
<path d="M21.5002 21.1557C24.8259 21.1557 27.5219 18.4597 27.5219 15.134C27.5219 11.8083 24.8259 9.1123 21.5002 9.1123C18.1745 9.1123 15.4785 11.8083 15.4785 15.134C15.4785 18.4597 18.1745 21.1557 21.5002 21.1557Z" fill="url(#paint2_linear_104_2755)"/>
</g>
<defs>
<linearGradient id="paint0_linear_104_2755" x1="21.5" y1="0" x2="21.5" y2="35.9957" gradientUnits="userSpaceOnUse">
<stop stop-color="#7FD2A1"/>
<stop offset="1" stop-color="#2BA886"/>
</linearGradient>
<linearGradient id="paint1_linear_104_2755" x1="21.5004" y1="25.9848" x2="21.5004" y2="43.0063" gradientUnits="userSpaceOnUse">
<stop stop-color="#7FD2A1"/>
<stop offset="1" stop-color="#2BA886"/>
</linearGradient>
<linearGradient id="paint2_linear_104_2755" x1="21.5002" y1="9.1123" x2="21.5002" y2="21.1557" gradientUnits="userSpaceOnUse">
<stop stop-color="#7FD2A1"/>
<stop offset="1" stop-color="#2BA886"/>
</linearGradient>
<clipPath id="clip0_104_2755">
<rect width="43" height="43" fill="white"/>
</clipPath>
</defs>
</svg>
