<svg width="87" height="85" viewBox="0 0 87 85" fill="none" xmlns="http://www.w3.org/2000/svg">
<g clip-path="url(#clip0_622_5824)">
<path d="M86.75 42.5C86.75 63.7135 71.0248 81.2962 50.4688 84.4837V54.7852H60.4881L62.3945 42.5H50.4688V34.5279C50.4688 31.1661 52.135 27.8906 57.4764 27.8906H62.8984V17.4316C62.8984 17.4316 57.977 16.6016 53.2721 16.6016C43.451 16.6016 37.0312 22.4852 37.0312 33.1367V42.5H26.1133V54.7852H37.0312V84.4837C16.4752 81.2962 0.75 63.7135 0.75 42.5C0.75 19.0287 20.0026 0 43.75 0C67.4974 0 86.75 19.0287 86.75 42.5Z" fill="#1877F2"/>
<path d="M60.4881 54.7852L62.3945 42.5H50.4688V34.5278C50.4688 31.1668 52.1347 27.8906 57.4762 27.8906H62.8984V17.4316C62.8984 17.4316 57.9776 16.6016 53.273 16.6016C43.4508 16.6016 37.0312 22.4852 37.0312 33.1367V42.5H26.1133V54.7852H37.0312V84.4835C39.2206 84.823 41.4643 85 43.75 85C46.0357 85 48.2794 84.823 50.4688 84.4835V54.7852H60.4881Z" fill="white"/>
</g>
<defs>
<clipPath id="clip0_622_5824">
<rect width="86" height="85" fill="white" transform="translate(0.75)"/>
</clipPath>
</defs>
</svg>
