<svg width="28" height="28" viewBox="0 0 28 28" fill="none" xmlns="http://www.w3.org/2000/svg">
<g clip-path="url(#clip0_622_5544)">
<path d="M26.1044 11.772L15.0806 11.7715C14.5938 11.7715 14.1992 12.1592 14.1992 12.6376V16.0983C14.1992 16.5766 14.5938 16.9644 15.0805 16.9644H21.2885C20.6087 18.6981 19.3399 20.15 17.7212 21.0725L20.3683 25.5757C24.6145 23.1623 27.1249 18.9279 27.1249 14.1878C27.1249 13.5128 27.0742 13.0304 26.973 12.4871C26.896 12.0743 26.5314 11.772 26.1044 11.772Z" fill="#167EE6"/>
<path d="M13.6108 22.1642C10.5728 22.1642 7.92063 20.533 6.4962 18.1191L1.91406 20.7146C4.24588 24.6862 8.61413 27.3606 13.6108 27.3606C16.0621 27.3606 18.375 26.7121 20.3674 25.5818V25.5756L17.7204 21.0724C16.5096 21.7626 15.1084 22.1642 13.6108 22.1642Z" fill="#12B347"/>
<path d="M20.3679 25.5816V25.5754L17.7209 21.0723C16.5101 21.7623 15.109 22.1641 13.6113 22.1641V27.3605C16.0625 27.3605 18.3756 26.7119 20.3679 25.5816Z" fill="#0F993E"/>
<path d="M5.38543 14.081C5.38543 12.6093 5.7941 11.2326 6.49621 10.0427L1.91407 7.44727C0.757586 9.39913 0.0976562 11.6659 0.0976562 14.081C0.0976562 16.496 0.757586 18.7628 1.91407 20.7147L6.49621 18.1192C5.7941 16.9294 5.38543 15.5526 5.38543 14.081Z" fill="#FFD500"/>
<path d="M13.6108 5.9972C15.592 5.9972 17.4117 6.68899 18.8331 7.83971C19.1837 8.12357 19.6934 8.10308 20.0146 7.78742L22.5098 5.33534C22.8742 4.9772 22.8482 4.39098 22.4589 4.05909C20.0775 2.02879 16.979 0.800781 13.6108 0.800781C8.61413 0.800781 4.24588 3.47525 1.91406 7.44682L6.4962 10.0423C7.92063 7.62843 10.5728 5.9972 13.6108 5.9972Z" fill="#FF4B26"/>
<path d="M18.8335 7.83971C19.1842 8.12357 19.6939 8.10308 20.0151 7.78742L22.5102 5.33534C22.8746 4.9772 22.8487 4.39098 22.4594 4.05909C20.078 2.02874 16.9794 0.800781 13.6113 0.800781V5.9972C15.5924 5.9972 17.4122 6.68899 18.8335 7.83971Z" fill="#D93F21"/>
</g>
<defs>
<clipPath id="clip0_622_5544">
<rect width="27.0264" height="26.5595" fill="white" transform="translate(0.0976562 0.800781)"/>
</clipPath>
</defs>
</svg>
