<svg width="251" height="53" viewBox="0 0 251 53" fill="none" xmlns="http://www.w3.org/2000/svg">
<path d="M12.5165 46.3668C18.6322 46.3668 24.5503 46.4001 30.4683 46.3391C31.6457 46.3252 32.0381 46.6221 31.9224 47.7764C31.7982 49.0028 32.3261 50.651 31.6909 51.3752C30.9511 52.2215 29.2231 51.6388 27.93 51.6443C19.1913 51.6721 10.4497 51.6582 1.71104 51.6582C1.20845 51.6582 0.703049 51.6582 0 51.6582C1.71386 48.1121 3.34866 44.7214 4.98911 41.3335C11.4267 28.0648 17.8783 14.8017 24.2764 1.51366C24.8072 0.409322 25.4086 -0.042956 26.6961 0.0264117C28.9436 0.151274 31.208 0.129076 33.4584 0.0347358C34.8193 -0.0207583 34.7656 0.392673 34.2772 1.38879C30.8466 8.38106 27.4556 15.3928 24.0561 22.4017C20.3574 30.0321 16.6614 37.6653 12.9683 45.2958C12.8299 45.5788 12.7198 45.8757 12.5137 46.364L12.5165 46.3668Z" fill="#21A282"/>
<path d="M219.289 33.3654C219.289 36.7256 219.261 40.083 219.3 43.4404C219.326 45.5325 220.235 46.5841 221.949 46.6951C224.061 46.8311 225.213 45.7795 225.292 43.5486C225.345 42.0308 225.365 40.5075 225.28 38.9953C225.227 38.038 225.597 37.8299 226.48 37.8799C227.697 37.9464 228.923 37.9076 230.145 37.891C230.625 37.8854 230.967 37.9492 230.947 38.5486C230.86 41.2067 231.213 43.8899 230.442 46.5037C229.499 49.6918 227.155 51.6091 223.776 51.9671C222.745 52.0753 221.723 52.1002 220.687 51.9893C216.584 51.5425 214.037 49.1063 213.492 45.1052C213.244 43.2739 213.264 41.437 213.275 39.5974C213.303 33.9869 213.117 28.3626 213.422 22.766C213.789 16.0568 219.492 12.7271 225.938 15.1633C229.643 16.5645 230.699 19.6001 230.925 23.0851C231.012 24.4503 231.393 26.2011 230.71 27.0918C230.052 27.9519 228.155 27.1917 226.828 27.3776C225.461 27.569 225.216 26.9836 225.278 25.7988C225.343 24.5224 225.461 23.2238 225.117 21.953C224.713 20.4769 223.722 19.786 222.093 19.8637C220.588 19.9358 219.588 20.71 219.427 22.1944C219.108 25.1717 219.354 28.1684 219.295 31.1567C219.281 31.892 219.295 32.6301 219.295 33.3654H219.289Z" fill="white"/>
<path d="M71.2729 24.917C71.1317 24.917 70.9905 24.917 70.8493 24.917C69.415 24.917 68.6339 24.2029 68.5059 22.7749C68.3336 20.8714 67.4583 19.928 65.7925 19.8559C63.9713 19.7754 63.0452 20.5662 62.7629 22.564C62.4156 25.0335 63.4207 27.0812 65.1035 28.8043C66.8852 30.6301 68.8475 32.2866 70.6094 34.129C74.0314 37.7139 74.9999 41.9481 73.6503 46.6485C72.7411 49.8144 70.4682 51.5153 67.176 51.9482C66.1511 52.0841 65.1261 52.1091 64.0871 51.9981C59.8603 51.5431 57.3248 49.2012 56.763 45.0891C56.602 43.9099 56.6528 42.7029 56.5653 41.5125C56.5145 40.8244 56.7037 40.5108 57.4858 40.5469C58.7507 40.6052 60.0241 40.6024 61.2918 40.5469C62.0542 40.5136 62.2546 40.7911 62.2349 41.4959C62.2095 42.4587 62.2264 43.4326 62.3619 44.3843C62.5709 45.8827 63.497 46.6318 65.0301 46.6929C66.7299 46.7595 67.6645 46.1379 68.0569 44.6396C68.6244 42.4698 67.9779 40.5608 66.6819 38.8127C65.2363 36.8593 63.3078 35.3665 61.5347 33.7294C57.9545 30.4275 56.1531 26.5097 56.9211 21.6262C57.6693 16.8814 60.7921 14.3342 65.6711 14.5257C71.4056 14.7504 74.8079 18.6628 74.1754 24.2455C74.1105 24.8199 73.8874 24.9308 73.3905 24.9197C72.6874 24.9003 71.9816 24.9142 71.2757 24.9142L71.2729 24.917Z" fill="white"/>
<path d="M77.5393 33.1889C77.5393 27.5341 77.576 21.8764 77.5082 16.2216C77.4941 15.0978 77.8499 14.8897 78.903 14.9036C83.3641 14.9591 87.8252 14.973 92.2835 14.8953C93.444 14.8758 93.7179 15.2421 93.6303 16.2771C93.5456 17.2815 93.5654 18.3026 93.6275 19.3098C93.6727 20.0534 93.3875 20.2421 92.6675 20.2338C89.9457 20.2005 87.221 20.2449 84.4992 20.2033C83.734 20.1922 83.4291 20.3531 83.4432 21.1772C83.494 23.9353 83.4968 26.6961 83.4432 29.4542C83.4262 30.2866 83.7453 30.4225 84.4879 30.4059C86.5067 30.3615 88.5255 30.4281 90.5443 30.3726C91.3461 30.3504 91.6313 30.5835 91.5607 31.3715C91.4337 32.7783 92.1508 34.6123 91.2586 35.4697C90.5527 36.1468 88.6723 35.6334 87.317 35.6917C86.0662 35.7444 84.4032 35.1562 83.6832 35.9442C83.0648 36.6184 83.4799 38.2139 83.4686 39.4015C83.4545 41.3327 83.5251 43.2667 83.4404 45.1951C83.3952 46.2078 83.7622 46.4048 84.7138 46.3827C87.3424 46.3216 89.9739 46.3882 92.6026 46.3438C93.3903 46.3299 93.7038 46.5353 93.6303 47.3372C93.5033 48.7412 94.2148 50.5697 93.3339 51.4326C92.6393 52.1096 90.7589 51.6435 89.4064 51.649C85.8855 51.6601 82.3618 51.6158 78.8409 51.6768C77.8301 51.6934 77.5026 51.5048 77.5167 50.4282C77.5816 44.6818 77.5477 38.9326 77.5477 33.1861L77.5393 33.1889Z" fill="white"/>
<path d="M238.887 35.8988C238.887 31.0708 238.859 26.2428 238.91 21.4176C238.921 20.4658 238.692 20.1329 237.682 20.1995C236.326 20.2883 234.96 20.1939 233.599 20.2328C232.93 20.2522 232.625 20.0469 232.726 19.3754C232.741 19.2866 232.726 19.1922 232.726 19.1007C232.797 17.7799 232.162 16.0679 232.958 15.2383C233.768 14.3976 235.533 14.9969 236.877 14.9858C241.101 14.9497 245.328 15.0191 249.552 14.9442C250.763 14.922 251.09 15.2966 250.98 16.4092C250.884 17.3665 250.915 18.3404 250.975 19.3032C251.02 20.0358 250.757 20.2605 250.023 20.2328C248.71 20.1828 247.389 20.2966 246.082 20.1939C245.003 20.1107 244.774 20.4603 244.777 21.4814C244.819 30.8127 244.802 40.1469 244.802 49.4782C244.802 50.9284 244.039 51.6536 242.513 51.6536C241.714 51.6536 240.903 51.5676 240.121 51.673C238.992 51.8256 238.848 51.3428 238.859 50.3772C238.91 45.5492 238.882 40.724 238.882 35.896L238.887 35.8988Z" fill="white"/>
<path d="M209.605 33.2867C209.605 39.0359 209.588 44.7824 209.625 50.5316C209.63 51.3973 209.455 51.7469 208.493 51.6803C207.23 51.5915 205.954 51.597 204.692 51.6803C203.803 51.7386 203.611 51.4583 203.616 50.6176C203.656 44.5465 203.636 38.4782 203.636 32.4072C203.636 26.9798 203.662 21.5553 203.614 16.1279C203.605 15.1956 203.786 14.8266 204.816 14.9098C206.03 15.007 207.261 14.9931 208.476 14.9126C209.407 14.8488 209.633 15.1485 209.628 16.0447C209.585 21.7939 209.605 27.5403 209.605 33.2895V33.2867Z" fill="white"/>
<path d="M143.572 46.426C144.464 46.2234 145.825 46.7978 146.172 46.1541C146.562 45.4326 145.554 44.4754 145.201 43.6041C144.825 42.6801 144.362 41.7895 143.939 40.8821C144.413 35.9653 144.258 31.0236 144.554 26.1013C144.597 25.3826 144.456 24.614 145.128 24.0674C145.737 23.7927 145.989 24.2561 146.209 24.6362C146.576 25.2716 146.98 25.8876 147.248 26.5757C146.887 27.1223 147.313 27.533 147.522 27.9603C151.113 35.3882 154.716 42.8133 158.319 50.2357C159.005 51.6508 159.008 51.6563 157.381 51.6535C152.779 51.6424 148.174 51.623 143.572 51.6092C142.872 49.8805 142.88 48.1519 143.572 46.4232V46.426Z" fill="#66B76D"/>
<path d="M134.262 25.1926C134.852 25.1621 135.443 25.1343 136.05 25.1038C136.115 24.4628 135.567 24.0466 135.491 23.4806C135.666 22.5844 135.807 21.6687 135.781 20.7641C135.663 16.8185 136.216 12.8895 136.106 8.94389C136.078 7.95054 136.019 6.90725 136.809 6.08594C136.998 6.20802 137.185 6.33011 137.374 6.4522C138.097 7.75076 138.695 9.11314 139.415 10.4145C140.296 12.0321 140.92 13.7691 141.804 15.384C142.072 15.8723 142.239 16.3968 142.177 16.9711C142.024 21.0527 141.665 25.126 141.756 29.2131C141.781 30.3646 141.736 31.5134 141.448 32.6371C141.313 33.1615 141.239 33.7692 140.446 33.722C139.901 32.6233 139.254 31.5605 138.836 30.4174C138.427 29.2964 137.73 29.0578 136.606 29.0966C133.562 29.1993 130.513 29.1909 127.463 29.2131C127.102 29.2159 126.709 29.3269 126.385 29.055C127.763 28.1754 129.293 28.7276 130.75 28.6138C130.888 28.6138 131.027 28.6082 131.168 28.6055C132.787 28.5888 133.69 27.7851 133.878 26.1943C133.921 25.8252 133.983 25.4701 134.265 25.1954L134.262 25.1926Z" fill="#479C7F"/>
<path d="M130.858 13.833C130.267 13.9245 130.372 14.424 130.273 14.7958C129.514 17.6732 128.762 20.5533 128.006 23.4307C127.531 23.7831 127.294 23.4917 127.088 23.1088C127.692 17.4318 127.221 11.7436 127.235 6.03881C125.747 11.4911 124.186 16.9101 123.008 22.4262C121.997 22.5678 121.921 22.01 122.093 21.2609C123.816 14.4573 125.544 7.65647 127.26 0.850106C127.396 0.311812 127.591 -0.0211525 128.28 0.00104513C129.917 0.0537646 131.561 0.0232428 133.201 0.00936926C133.647 0.00659455 134.059 0.00381984 134.175 0.547663C133.113 4.98442 132.046 9.42118 130.858 13.8302V13.833Z" fill="#3B62AB"/>
<path d="M130.857 13.8344C130.471 12.5137 131.213 11.3566 131.476 10.1469C132.142 7.08358 132.964 4.05082 133.715 1.00697C133.78 0.748917 133.941 0.62683 134.175 0.554688C135.053 2.39987 135.928 4.24505 136.807 6.09301C136.434 11.0153 136.248 15.9404 136.222 20.8767C136.216 21.7812 136.281 22.7662 135.488 23.4849C133.944 20.269 132.402 17.0531 130.857 13.8372V13.8344Z" fill="#298388"/>
<path d="M146.678 6.42619C147.926 6.07103 149.1 5.50499 150.456 5.48557C156.458 5.394 160.01 10.5855 157.633 16.0239C156.063 16.2376 154.759 15.6715 153.592 14.7004C153.417 14.3508 153.502 13.9873 153.528 13.621C153.672 11.368 152.26 9.96117 149.973 10.05C149.462 10.0694 148.953 10.2414 148.437 10.1166C147.37 9.10656 146.661 7.93286 146.681 6.42619H146.678Z" fill="#4156A1"/>
<path d="M153.719 14.6394C154.959 15.2748 156.291 15.6605 157.633 16.0212C156.675 18.8154 154.547 20.7493 152.443 22.6722C150.845 24.1317 149.148 25.4886 147.248 26.5735C146.158 26.0712 146.183 24.8393 145.528 24.0513C145.082 23.6683 145.074 23.2466 145.404 22.7888C146.909 21.3487 148.693 20.2166 150.133 18.6905C151.153 17.6112 152.24 16.6039 152.92 15.261C153.075 14.9585 153.217 14.5507 153.719 14.6367V14.6394Z" fill="#24A284"/>
<path d="M146.677 6.42755C147.248 7.60402 147.815 8.78328 148.386 9.95975C147.643 11.139 146.158 11.4886 144.498 10.7949C143.411 10.3399 142.338 9.95143 141.124 10.1013C140.426 10.1873 139.844 10.6923 139.108 10.5924C138.56 9.19948 137.411 8.05075 137.371 6.4553C139.432 5.24275 141.615 5.2039 143.82 5.92533C144.763 6.23332 145.689 6.4553 146.677 6.42755Z" fill="#24A284"/>
<path d="M140.44 33.7233C141.457 32.9158 141.132 31.7172 141.279 30.6905C141.44 29.564 141.352 28.3986 141.307 27.2499C141.186 24.1311 141.776 21.0345 141.615 17.913C141.592 17.4718 141.787 17.0223 141.883 16.5756C142.084 16.5367 142.287 16.5811 142.369 16.7532C143.044 18.1377 143.936 19.4474 143.956 21.0651C143.786 21.7393 143.704 22.4219 143.73 23.1128C143.896 27.3304 143.312 31.5313 143.411 35.7516C143.428 36.4813 143.665 37.5135 142.363 37.6106C141.722 36.3149 141.078 35.0191 140.438 33.7233H140.44Z" fill="#56AA77"/>
<path d="M125.804 46.4258C127.871 46.4258 129.941 46.4258 132.007 46.4258C132.702 48.1544 132.716 49.8831 132.007 51.6117C129.845 51.6117 127.685 51.6117 125.522 51.6117C124.731 49.8359 125.299 48.1322 125.807 46.4258H125.804Z" fill="#21768A"/>
<path d="M142.366 37.61C143.035 37.3492 143.03 36.7887 143.007 36.2227C142.835 31.6278 143.484 27.0467 143.292 22.4518C143.264 21.7998 143.275 21.1505 143.902 20.7148C144.944 21.1283 144.989 22.2298 145.531 22.9873C145.24 23.3425 145.568 23.6977 145.526 24.0528C144.862 24.3553 144.978 24.949 144.981 25.4901C145.012 29.5689 144.594 33.6367 144.631 37.7183C144.639 38.7283 144.851 39.9796 143.936 40.8814C143.222 39.8798 142.776 38.7504 142.363 37.61H142.366Z" fill="#5AAD75"/>
<path d="M125.803 46.426C125.998 48.1713 125.377 49.8722 125.518 51.612H119.603C119.684 51.2651 119.732 50.9988 119.811 50.7407C120.238 49.309 120.018 47.2362 121.139 46.5842C122.31 45.9016 124.216 46.4288 125.803 46.426Z" fill="#175A8B"/>
<path d="M135.392 46.4258C136.896 46.4258 138.399 46.4258 139.903 46.4258C140.203 48.1738 140.307 49.9136 139.618 51.6089C138.113 51.6089 136.611 51.6089 135.106 51.6089C134.539 49.847 134.844 48.1295 135.392 46.4258Z" fill="#429682"/>
<path d="M139.622 51.6089C139.667 49.8775 139.469 48.135 139.907 46.4258C141.13 46.4258 142.352 46.4258 143.575 46.4258C143.575 48.1544 143.575 49.8831 143.575 51.6117C142.259 51.6117 140.943 51.6117 139.625 51.6117L139.622 51.6089Z" fill="#54A878"/>
<path d="M135.392 46.4286C135.522 48.1683 135.24 49.8858 135.107 51.6117C134.074 51.6117 133.037 51.6117 132.004 51.6117C132.004 49.8831 132.004 48.1544 132.004 46.4258C133.133 46.4258 134.26 46.4258 135.389 46.4258L135.392 46.4286Z" fill="#2F8887"/>
<path d="M130.849 28.9509C129.358 28.9842 127.87 29.0175 126.379 29.0508C126.246 27.791 126.944 26.7117 127.175 25.5297C127.266 25.0691 127.621 25.144 127.935 25.1467C128.914 25.1551 129.894 25.1745 130.874 25.1911C131.529 26.4481 131.56 27.7023 130.849 28.9509Z" fill="#195F8B"/>
<path d="M130.85 28.9511C130.858 27.697 130.867 26.4456 130.875 25.1914C132.004 25.1914 133.131 25.1914 134.26 25.1914C134.26 25.4217 134.266 25.652 134.266 25.8795C134.27 28.0531 133.131 29.0769 130.85 28.9511Z" fill="#2C8388"/>
<path d="M122.198 34.8302C121.704 36.7559 121.21 38.6787 120.716 40.6044C120.436 40.6599 120.298 40.5822 120.394 40.2797C120.896 38.0211 121.399 35.7625 121.901 33.5039C122.763 33.7842 122.093 34.3918 122.198 34.833V34.8302Z" fill="#6C7BB3"/>
<path d="M125.499 25.699C125.143 26.82 124.779 27.9409 124.429 29.0647C124.279 29.5475 124.169 30.0497 123.542 30.1579C123.492 30.1052 123.444 30.0525 123.393 29.9998C123.181 28.4293 123.994 27.1113 124.505 25.7184C124.672 25.5547 124.878 25.4909 125.112 25.4964C125.265 25.5186 125.392 25.5852 125.499 25.6962V25.699Z" fill="#413D3E"/>
<path d="M122.198 34.8303C122.059 34.3947 122.277 33.8841 121.901 33.5012C122.181 32.3608 122.46 31.2176 122.74 30.0772C122.825 29.9912 122.926 29.9357 123.045 29.9107C123.228 29.8913 123.398 29.9357 123.553 30.0328L123.545 30.1632C122.873 31.6588 122.923 33.3514 122.198 34.8331V34.8303Z" fill="#BBBEC2"/>
<path d="M123.008 30.0639L122.875 30.1028L122.74 30.0778C122.164 29.348 122.291 28.5961 122.658 27.833C123.166 27.0728 122.824 26.0461 123.479 25.3303C123.603 25.2581 123.739 25.2193 123.883 25.2109C124.191 25.2415 124.456 25.3219 124.459 25.6993C123.815 27.1033 123.745 28.6876 123.011 30.0639H123.008Z" fill="#3F3A3C"/>
<path d="M120.394 40.2773C120.501 40.3856 120.608 40.4938 120.716 40.602C120.238 42.4888 119.758 44.3784 119.281 46.2652C119.332 44.198 119.775 42.2196 120.394 40.2773Z" fill="#8F9BC8"/>
<path d="M127.206 23.2103C127.475 23.2852 127.74 23.3574 128.008 23.4323C127.949 23.7292 127.706 23.7486 127.469 23.7708C126.749 24.0594 126.43 24.8418 125.713 25.1387C125.19 25.2164 124.674 25.283 124.335 24.7475C124.487 23.8346 125.154 23.4767 125.978 23.288C126.382 23.1881 126.791 23.1021 127.209 23.2103H127.206Z" fill="#B5C1CA"/>
<path d="M122.096 21.2617C122.127 21.825 122.132 22.4049 122.971 22.3439C123.214 22.2884 123.327 22.4243 123.4 22.6186C123.44 23.1208 123.674 23.6369 123.293 24.1113C123.095 24.2029 122.909 24.2057 122.745 24.042C121.785 23.2817 121.827 22.2967 122.098 21.2617H122.096Z" fill="#A8ACBA"/>
<path d="M125.823 24.8987C126.275 24.3882 126.442 23.4836 127.466 23.7694C127.221 24.8155 126.439 25.3344 125.498 25.6979C125.405 25.6923 125.312 25.6868 125.219 25.6812C124.869 25.0097 125.53 25.0902 125.823 24.896V24.8987Z" fill="#6F7579"/>
<path d="M123.576 25.388C123.203 26.2259 123.231 27.1582 122.943 27.999C122.788 28.454 122.78 27.863 122.655 27.8325C122.777 26.9446 122.898 26.0539 123.02 25.166C123.324 24.9523 123.516 25.0106 123.573 25.3907L123.576 25.388Z" fill="#1D1C1D"/>
<path d="M123.576 25.3848C123.458 25.1517 123.252 25.1267 123.023 25.16C122.786 24.8215 122.63 24.4636 122.746 24.0391C122.904 24.0502 123.065 24.0585 123.223 24.0696C123.61 24.0807 123.828 24.3165 123.994 24.6218C124.082 24.8881 124.079 25.1406 123.878 25.3654C123.777 25.3709 123.678 25.3792 123.576 25.3848Z" fill="#7A8087"/>
<path d="M177.982 21.5457C177.42 17.9913 175.223 15.7188 171.618 15.1667C168.215 14.6478 164.776 15.0723 161.357 14.9058C160.301 14.8531 160.027 15.1361 160.038 16.1794C160.095 21.8343 160.067 27.4864 160.067 33.1412C160.067 38.9321 160.067 44.7256 160.067 50.5165C160.067 51.0881 159.875 51.6957 160.908 51.6763C164.099 51.6125 167.295 51.7401 170.483 51.6125C174.509 51.4515 177.14 49.2318 177.894 45.5053C178.112 44.4315 178.188 43.3161 178.196 42.2173C178.227 37.528 178.225 32.8388 178.205 28.1523C178.196 25.9492 178.329 23.7433 177.982 21.5457ZM172.191 42.6196C172.191 45.5858 171.383 46.3627 168.342 46.3655C166.776 46.3655 165.993 45.5941 165.993 44.0514C165.993 40.4193 165.993 36.7872 165.993 33.1551C165.993 29.2483 166.024 25.3388 165.971 21.432C165.956 20.4747 166.228 20.2 167.219 20.2C171.699 20.2 172.194 20.655 172.194 25.1029C172.194 30.9409 172.196 36.7817 172.194 42.6196H172.191Z" fill="#FEFEFE"/>
<path d="M114.846 47.1464C114.865 44.8018 114.888 42.4544 114.789 40.1125C114.679 37.4849 113.869 35.1624 111.15 33.7279C113.42 32.4377 114.453 30.4926 114.696 28.1563C114.925 25.9615 114.978 23.7362 114.69 21.5497C114.154 17.4987 112.239 15.6812 108.069 15.0902C107.008 14.9404 105.915 14.9209 104.839 14.9404C102.321 14.9903 99.7964 14.7545 97.2835 15.0708C97.2496 17.5014 97.1875 19.9293 97.1846 22.3599C97.1733 31.6941 97.1931 41.031 97.1592 50.3651C97.1564 51.3307 97.2976 51.7941 98.4326 51.6803C99.5479 51.5665 100.691 51.5804 101.81 51.6775C102.86 51.7691 103.151 51.4583 103.134 50.4095C103.066 46.2252 103.097 42.0409 103.122 37.8567C103.122 37.4849 102.784 36.9383 103.532 36.744C106.547 35.956 108.809 37.5875 108.877 40.6786C108.922 42.8401 108.877 45.0016 108.888 47.1631C108.894 48.359 108.896 49.5549 109.17 50.7286C109.269 51.1559 109.269 51.6664 109.952 51.6609C111.757 51.647 113.564 51.6553 115.464 51.6553C114.956 50.0737 114.834 48.6226 114.846 47.1464ZM108.8 28.5087C108.541 30.8228 105.621 32.3766 103.458 31.4416C102.984 31.2362 103.114 30.8367 103.111 30.4954C103.097 28.9332 103.105 27.3683 103.105 25.8061C103.105 24.3355 103.145 22.8622 103.089 21.3943C103.055 20.5453 103.233 20.1984 104.229 20.1957C108.075 20.1873 108.88 20.906 108.882 24.6518C108.882 25.9393 108.942 27.2351 108.8 28.5087Z" fill="white"/>
<path d="M199.932 22.8906C199.841 17.9905 196.854 15.163 191.87 14.991C188.917 14.8883 185.955 14.9827 182.999 14.9077C182.059 14.8828 181.85 15.1658 181.856 16.0482C181.895 21.7502 181.875 27.4522 181.875 33.1542C181.875 38.8563 181.895 44.7414 181.856 50.535C181.85 51.4118 182.048 51.7004 182.996 51.6782C185.811 51.6116 188.632 51.6671 191.447 51.6504C196.639 51.6227 199.83 48.7758 199.929 43.7148C200.067 36.7724 200.061 29.8274 199.929 22.885L199.932 22.8906ZM194.047 42.5327C194.042 45.757 191.199 47.5855 188.152 46.3535C187.587 46.126 187.813 45.6571 187.81 45.2908C187.793 41.2952 187.799 37.2996 187.799 33.3041C187.799 29.3557 187.824 25.4045 187.779 21.4561C187.768 20.5543 187.926 20.1936 188.974 20.1963C193.5 20.2047 194.05 20.7041 194.05 25.1742C194.05 30.9622 194.059 36.7475 194.047 42.5355V42.5327Z" fill="white"/>
<path d="M54.719 50.5794C54.3294 48.4095 53.9708 46.2342 53.6179 44.0588C52.0904 34.6747 50.5685 25.2934 49.0523 15.9066C48.945 15.249 48.753 14.88 47.9201 14.9077C45.6669 14.9771 43.411 14.9577 41.1578 14.916C40.4068 14.9022 40.1583 15.0992 40.0341 15.8733C38.1226 27.7518 36.1631 39.622 34.1895 51.6587C35.8384 51.6587 37.3376 51.6199 38.8369 51.6754C39.5964 51.7031 39.7489 51.4007 39.828 50.732C40.0228 49.0893 40.3672 47.4661 40.5649 45.8263C40.644 45.1742 40.867 45.0022 41.5192 45.0161C43.3489 45.0605 45.1841 45.0521 47.0137 45.0189C47.6547 45.0078 47.9173 45.1881 47.985 45.8485C48.1318 47.2636 48.4396 48.6648 48.5638 50.0799C48.6683 51.2619 49.0297 51.8779 50.416 51.6865C51.5229 51.5339 52.672 51.581 53.7929 51.6782C54.784 51.7642 54.8602 51.3535 54.719 50.5766V50.5794ZM45.4524 40.0327C44.4754 39.9384 43.4787 39.9495 42.499 40.0327C41.5333 40.1132 41.443 39.7525 41.5757 38.9284C42.4482 33.4899 43.2726 28.046 44.1112 22.602C44.1846 22.5853 44.2608 22.5687 44.3343 22.552C44.6618 24.6247 44.9921 26.6947 45.314 28.7702C45.8194 32.036 46.257 35.3101 46.85 38.5593C47.0872 39.8662 46.6665 40.1492 45.4524 40.0327Z" fill="white"/>
<path d="M123.27 22.6503C123.172 22.5476 123.07 22.4477 122.971 22.345C122.754 21.9732 122.663 21.5959 122.776 21.1602C124.132 15.9382 125.476 10.7162 126.828 5.49424C126.885 5.27781 126.997 5.07526 127.125 4.76172C127.746 5.31666 127.78 5.96872 127.78 6.63742C127.78 11.3211 127.777 16.0048 127.78 20.6858C127.78 21.5681 127.542 22.4005 127.209 23.208C126.916 23.5798 126.509 23.4771 126.122 23.4494C125.038 23.6381 124.067 23.4494 123.273 22.6475L123.27 22.6503Z" fill="#2577BB"/>
<path d="M123.008 30.064C123.301 28.7238 123.592 27.3808 123.894 26.0434C123.954 25.7854 124.205 25.7243 124.431 25.6577C124.532 25.6106 124.617 25.63 124.688 25.7188C124.425 27.1866 123.663 28.5268 123.556 30.0335C123.375 30.0446 123.191 30.0557 123.011 30.064H123.008Z" fill="#080809"/>
<path d="M124.685 25.7149C124.603 25.6844 124.518 25.665 124.428 25.6539C124.315 25.4236 124.089 25.4069 123.874 25.3653C123.852 25.11 123.829 24.852 123.804 24.5967C124.007 24.4469 124.202 24.4497 124.391 24.6217C124.8 25.0518 125.345 24.8048 125.82 24.8964C125.588 25.135 125.224 25.2765 125.215 25.6816C125.038 25.6927 124.86 25.7038 124.682 25.7149H124.685Z" fill="#69B1C0"/>
<path d="M124.394 24.6213C124.199 24.6129 124.001 24.6046 123.806 24.5963C123.612 24.4215 123.417 24.2467 123.219 24.0691C123.561 23.6057 122.776 23.1063 123.27 22.6484C124.219 22.9148 125.17 23.184 126.119 23.4503C125.543 23.8416 124.97 24.23 124.394 24.6213Z" fill="#E6E8EA"/>
</svg>
