<svg width="254" height="51" viewBox="0 0 254 51" fill="none" xmlns="http://www.w3.org/2000/svg">
<path d="M12.6389 45.4364C18.8144 45.4364 24.7902 45.4688 30.7661 45.4093C31.955 45.3957 32.3513 45.6854 32.2344 46.8115C32.109 48.0081 32.6422 49.6161 32.0007 50.3226C31.2537 51.1483 29.5088 50.5798 28.203 50.5852C19.3789 50.6123 10.5519 50.5987 1.72776 50.5987C1.22027 50.5987 0.709922 50.5987 0 50.5987C1.73061 47.1391 3.38139 43.8311 5.03788 40.5257C11.5384 27.5805 18.0531 14.6406 24.5137 1.67646C25.0497 0.599039 25.657 0.157786 26.9571 0.225463C29.2265 0.347281 31.5131 0.325625 33.7854 0.233584C35.1597 0.179442 35.1055 0.582797 34.6123 1.55464C31.1482 8.37647 27.724 15.2173 24.2913 22.0553C20.5564 29.4998 16.8243 36.947 13.0951 44.3914C12.9554 44.6675 12.8442 44.9572 12.636 45.4336L12.6389 45.4364Z" fill="#21A282"/>
<path d="M221.433 32.75C221.433 36.0283 221.404 39.3038 221.444 42.5794C221.47 44.6205 222.388 45.6465 224.119 45.7548C226.251 45.8874 227.414 44.8615 227.494 42.685C227.548 41.2042 227.568 39.718 227.483 38.2426C227.429 37.3087 227.802 37.1057 228.695 37.1544C229.923 37.2194 231.161 37.1815 232.395 37.1652C232.88 37.1598 233.225 37.2221 233.205 37.8068C233.117 40.4002 233.473 43.0179 232.695 45.568C231.742 48.6784 229.376 50.549 225.963 50.8982C224.923 51.0038 223.89 51.0282 222.844 50.9199C218.701 50.4841 216.13 48.1072 215.58 44.2036C215.329 42.417 215.349 40.6249 215.36 38.8301C215.389 33.3564 215.2 27.8691 215.508 22.409C215.879 15.8632 221.638 12.6148 228.147 14.9916C231.888 16.3586 232.954 19.3202 233.182 22.7203C233.271 24.0522 233.655 25.7603 232.966 26.6293C232.301 27.4685 230.385 26.7267 229.045 26.9081C227.665 27.0949 227.417 26.5237 227.48 25.3678C227.546 24.1225 227.665 22.8556 227.317 21.6158C226.91 20.1756 225.909 19.5016 224.264 19.5774C222.744 19.6477 221.735 20.403 221.573 21.8513C221.25 24.756 221.498 27.6796 221.439 30.5952C221.424 31.3125 221.439 32.0326 221.439 32.75H221.433Z" fill="white"/>
<path d="M71.9701 24.5111C71.8275 24.5111 71.685 24.5111 71.5424 24.5111C70.0941 24.5111 69.3052 23.8145 69.176 22.4212C69.0021 20.5642 68.1182 19.6438 66.4361 19.5734C64.5971 19.4949 63.662 20.2664 63.3769 22.2155C63.0262 24.6248 64.0412 26.6226 65.7404 28.3037C67.5395 30.085 69.521 31.7011 71.3001 33.4986C74.7556 36.9961 75.7335 41.1271 74.3707 45.7129C73.4526 48.8017 71.1575 50.4611 67.8331 50.8834C66.7982 51.0161 65.7632 51.0404 64.714 50.9322C60.446 50.4882 57.8857 48.2034 57.3183 44.1915C57.1558 43.041 57.2071 41.8635 57.1187 40.7021C57.0674 40.0308 57.2584 39.7249 58.0482 39.7601C59.3255 39.8169 60.6113 39.8142 61.8915 39.7601C62.6613 39.7276 62.8637 39.9983 62.8437 40.6859C62.8181 41.6252 62.8352 42.5754 62.972 43.5039C63.183 44.9658 64.1182 45.6967 65.6663 45.7562C67.3827 45.8212 68.3264 45.2148 68.7227 43.753C69.2957 41.6361 68.6428 39.7736 67.3342 38.0681C65.8744 36.1624 63.9271 34.7059 62.1367 33.1088C58.5215 29.8874 56.7025 26.065 57.478 21.3005C58.2335 16.6714 61.3868 14.1863 66.3135 14.3731C72.1041 14.5924 75.5396 18.4093 74.901 23.856C74.8354 24.4164 74.6102 24.5246 74.1084 24.5138C73.3985 24.4949 72.6857 24.5084 71.9729 24.5084L71.9701 24.5111Z" fill="white"/>
<path d="M78.2968 32.5789C78.2968 27.0619 78.3338 21.5422 78.2654 16.0252C78.2512 14.9288 78.6104 14.7258 79.6739 14.7393C84.1786 14.7934 88.6833 14.807 93.1852 14.7312C94.357 14.7122 94.6335 15.0696 94.5452 16.0793C94.4596 17.0593 94.4796 18.0555 94.5423 19.0381C94.5879 19.7636 94.3 19.9477 93.5729 19.9396C90.8245 19.9071 88.0732 19.9504 85.3247 19.9098C84.5521 19.899 84.2442 20.056 84.2584 20.86C84.3097 23.5508 84.3126 26.2444 84.2584 28.9352C84.2413 29.7473 84.5635 29.88 85.3133 29.8637C87.3518 29.8204 89.3904 29.8854 91.4289 29.8313C92.2386 29.8096 92.5266 30.037 92.4553 30.8058C92.327 32.1783 93.0512 33.9677 92.1502 34.8041C91.4375 35.4647 89.5386 34.9639 88.1701 35.0207C86.9071 35.0721 85.2278 34.4982 84.5008 35.2671C83.8764 35.9249 84.2955 37.4814 84.2841 38.6401C84.2698 40.5242 84.3411 42.411 84.2556 44.2925C84.2099 45.2805 84.5806 45.4727 85.5414 45.4511C88.1958 45.3915 90.853 45.4565 93.5074 45.4132C94.3028 45.3996 94.6193 45.6 94.5452 46.3823C94.4169 47.7521 95.1353 49.5361 94.2458 50.378C93.5444 51.0385 91.6456 50.5837 90.2799 50.5891C86.7246 50.5999 83.1664 50.5566 79.6111 50.6162C78.5904 50.6324 78.2597 50.4483 78.274 49.398C78.3395 43.7916 78.3053 38.1826 78.3053 32.5762L78.2968 32.5789Z" fill="white"/>
<path d="M241.222 35.2241C241.222 30.5138 241.194 25.8034 241.245 21.0958C241.256 20.1673 241.026 19.8425 240.005 19.9074C238.636 19.9941 237.256 19.902 235.882 19.9399C235.206 19.9589 234.899 19.7585 235.001 19.1034C235.015 19.0168 235.001 18.9248 235.001 18.8354C235.072 17.5469 234.431 15.8766 235.235 15.0672C236.053 14.2469 237.835 14.8317 239.192 14.8208C243.458 14.7856 247.726 14.8533 251.991 14.7802C253.214 14.7586 253.545 15.124 253.433 16.2096C253.337 17.1435 253.368 18.0937 253.428 19.0331C253.473 19.7477 253.208 19.967 252.467 19.9399C251.141 19.8912 249.807 20.0022 248.487 19.902C247.398 19.8208 247.167 20.1619 247.17 21.1581C247.212 30.262 247.195 39.3686 247.195 48.4725C247.195 49.8874 246.425 50.5949 244.883 50.5949C244.076 50.5949 243.258 50.5109 242.468 50.6138C241.328 50.7627 241.182 50.2917 241.194 49.3496C241.245 44.6393 241.217 39.9317 241.217 35.2214L241.222 35.2241Z" fill="white"/>
<path d="M211.654 32.6745C211.654 38.2835 211.636 43.8899 211.674 49.499C211.679 50.3436 211.502 50.6847 210.53 50.6197C209.256 50.5331 207.967 50.5385 206.693 50.6197C205.795 50.6765 205.601 50.4031 205.606 49.5829C205.646 43.6598 205.626 37.7394 205.626 31.8163C205.626 26.5213 205.652 21.229 205.604 15.9339C205.595 15.0243 205.777 14.6643 206.818 14.7455C208.044 14.8402 209.287 14.8267 210.513 14.7482C211.454 14.6859 211.682 14.9783 211.676 15.8527C211.634 21.4618 211.654 27.0681 211.654 32.6772V32.6745Z" fill="white"/>
<path d="M144.975 45.4923C145.876 45.2947 147.25 45.855 147.601 45.227C147.995 44.5231 146.977 43.5892 146.62 42.7392C146.241 41.8377 145.774 40.9688 145.346 40.0835C145.825 35.2866 145.668 30.4653 145.967 25.6629C146.01 24.9618 145.868 24.2119 146.546 23.6787C147.162 23.4107 147.416 23.8627 147.638 24.2336C148.009 24.8535 148.416 25.4545 148.687 26.1258C148.322 26.6591 148.753 27.0598 148.964 27.4767C152.59 34.7235 156.228 41.9677 159.866 49.2091C160.559 50.5897 160.562 50.5951 158.92 50.5924C154.273 50.5816 149.622 50.5626 144.975 50.5491C144.268 48.8626 144.277 47.1761 144.975 45.4896V45.4923Z" fill="#66B76D"/>
<path d="M135.575 24.7776C136.171 24.7479 136.767 24.7208 137.38 24.691C137.445 24.0657 136.892 23.6596 136.815 23.1074C136.992 22.233 137.135 21.3397 137.109 20.4572C136.989 16.6077 137.548 12.7745 137.437 8.92501C137.408 7.95587 137.348 6.93801 138.147 6.13672C138.338 6.25583 138.526 6.37494 138.717 6.49405C139.447 7.76096 140.051 9.09014 140.778 10.3598C141.668 11.938 142.298 13.6326 143.19 15.2081C143.461 15.6846 143.629 16.1962 143.567 16.7566C143.413 20.7387 143.051 24.7127 143.142 28.7002C143.167 29.8236 143.122 30.9444 142.831 32.0407C142.694 32.5524 142.62 33.1452 141.819 33.0992C141.269 32.0272 140.616 30.9904 140.194 29.8751C139.78 28.7814 139.076 28.5486 137.941 28.5865C134.868 28.6867 131.789 28.6785 128.71 28.7002C128.345 28.7029 127.948 28.8112 127.62 28.5459C129.012 27.6878 130.557 28.2265 132.028 28.1155C132.168 28.1155 132.308 28.1101 132.45 28.1073C134.085 28.0911 134.997 27.307 135.187 25.7549C135.23 25.3949 135.293 25.0484 135.578 24.7804L135.575 24.7776Z" fill="#479C7F"/>
<path d="M132.137 13.695C131.541 13.7843 131.646 14.2716 131.546 14.6344C130.78 17.4416 130.021 20.2516 129.257 23.0588C128.778 23.4026 128.539 23.1183 128.33 22.7448C128.941 17.2061 128.464 11.6566 128.479 6.09084C126.976 11.4102 125.4 16.6972 124.211 22.0788C123.19 22.2169 123.113 21.6728 123.287 20.9419C125.026 14.3041 126.771 7.66906 128.504 1.0286C128.641 0.503431 128.838 0.178582 129.534 0.200238C131.187 0.251673 132.847 0.221895 134.503 0.20836C134.954 0.205653 135.37 0.202945 135.487 0.733533C134.415 5.06215 133.337 9.39076 132.137 13.6923V13.695Z" fill="#3B62AB"/>
<path d="M132.137 13.6943C131.746 12.4058 132.496 11.2769 132.761 10.0966C133.434 7.10803 134.264 4.1492 135.022 1.17953C135.088 0.927777 135.25 0.808665 135.487 0.738281C136.373 2.53849 137.257 4.33869 138.144 6.14161C137.768 10.944 137.579 15.749 137.554 20.5649C137.548 21.4474 137.614 22.4084 136.812 23.1096C135.253 19.9721 133.696 16.8346 132.137 13.6971V13.6943Z" fill="#298388"/>
<path d="M148.111 6.46964C149.372 6.12314 150.558 5.5709 151.926 5.55195C157.988 5.46261 161.574 10.5276 159.174 15.8334C157.588 16.0419 156.271 15.4896 155.094 14.5421C154.917 14.2011 155.002 13.8464 155.028 13.4891C155.173 11.2909 153.748 9.91846 151.439 10.0051C150.923 10.024 150.409 10.1919 149.888 10.0701C148.81 9.08468 148.094 7.93959 148.114 6.46964H148.111Z" fill="#4156A1"/>
<path d="M155.222 14.4828C156.474 15.1028 157.819 15.479 159.174 15.831C158.207 18.557 156.057 20.4438 153.933 22.3198C152.32 23.7437 150.606 25.0675 148.687 26.126C147.587 25.636 147.612 24.4341 146.951 23.6652C146.5 23.2917 146.492 22.8802 146.825 22.4335C148.345 21.0285 150.147 19.9241 151.601 18.4352C152.63 17.3821 153.728 16.3994 154.415 15.0892C154.572 14.7942 154.714 14.3962 155.222 14.4801V14.4828Z" fill="#24A284"/>
<path d="M148.111 6.47011C148.687 7.61791 149.26 8.76842 149.836 9.91622C149.086 11.0667 147.587 11.4078 145.91 10.731C144.813 10.2871 143.729 9.9081 142.503 10.0543C141.799 10.1382 141.212 10.6309 140.468 10.5334C139.914 9.17448 138.754 8.05375 138.714 6.49718C140.795 5.31419 142.999 5.27629 145.226 5.98013C146.178 6.28061 147.113 6.49718 148.111 6.47011Z" fill="#24A284"/>
<path d="M141.813 33.098C142.84 32.3102 142.512 31.1407 142.66 30.1391C142.823 29.0401 142.734 27.9031 142.689 26.7824C142.566 23.7396 143.162 20.7185 142.999 17.673C142.977 17.2426 143.173 16.8041 143.27 16.3682C143.473 16.3303 143.678 16.3736 143.761 16.5415C144.442 17.8923 145.343 19.1701 145.363 20.7483C145.192 21.4061 145.109 22.072 145.135 22.7461C145.303 26.8609 144.713 30.9594 144.813 35.0768C144.83 35.7888 145.069 36.7958 143.755 36.8906C143.108 35.6264 142.458 34.3622 141.811 33.098H141.813Z" fill="#56AA77"/>
<path d="M127.033 45.4922C129.12 45.4922 131.21 45.4922 133.297 45.4922C133.998 47.1787 134.013 48.8652 133.297 50.5517C131.113 50.5517 128.932 50.5517 126.748 50.5517C125.95 48.8192 126.523 47.157 127.036 45.4922H127.033Z" fill="#21768A"/>
<path d="M143.758 36.8935C144.433 36.6391 144.428 36.0922 144.405 35.54C144.231 31.0571 144.887 26.5877 144.693 22.1048C144.664 21.4686 144.676 20.8352 145.309 20.4102C146.361 20.8135 146.406 21.8882 146.954 22.6273C146.66 22.9738 146.991 23.3203 146.948 23.6668C146.278 23.9618 146.395 24.5412 146.398 25.069C146.429 29.0484 146.007 33.017 146.044 36.9991C146.053 37.9845 146.267 39.2054 145.343 40.0852C144.622 39.1079 144.171 38.0062 143.755 36.8935H143.758Z" fill="#5AAD75"/>
<path d="M127.033 45.4917C127.23 47.1944 126.603 48.8539 126.745 50.5512H120.772C120.855 50.2128 120.903 49.9529 120.983 49.7012C121.414 48.3043 121.191 46.2821 122.323 45.646C123.506 44.98 125.431 45.4944 127.033 45.4917Z" fill="#175A8B"/>
<path d="M136.715 45.4961C138.235 45.4961 139.752 45.4961 141.271 45.4961C141.574 47.2016 141.679 48.8989 140.983 50.5529C139.464 50.5529 137.947 50.5529 136.427 50.5529C135.854 48.8339 136.162 47.1582 136.715 45.4961Z" fill="#429682"/>
<path d="M140.987 50.5529C141.032 48.8637 140.833 47.1637 141.274 45.4961C142.509 45.4961 143.744 45.4961 144.978 45.4961C144.978 47.1826 144.978 48.8691 144.978 50.5556C143.649 50.5556 142.321 50.5556 140.989 50.5556L140.987 50.5529Z" fill="#54A878"/>
<path d="M136.716 45.4949C136.847 47.1922 136.562 48.8679 136.428 50.5517C135.384 50.5517 134.338 50.5517 133.294 50.5517C133.294 48.8652 133.294 47.1787 133.294 45.4922C134.435 45.4922 135.572 45.4922 136.713 45.4922L136.716 45.4949Z" fill="#2F8887"/>
<path d="M132.128 28.4439C130.623 28.4764 129.12 28.5089 127.615 28.5414C127.481 27.3124 128.185 26.2593 128.419 25.1061C128.51 24.6567 128.869 24.7298 129.186 24.7325C130.175 24.7407 131.165 24.7596 132.154 24.7758C132.815 26.0022 132.847 27.2258 132.128 28.4439Z" fill="#195F8B"/>
<path d="M132.128 28.4454C132.137 27.2218 132.145 26.0009 132.154 24.7773C133.294 24.7773 134.432 24.7773 135.572 24.7773C135.572 25.002 135.578 25.2267 135.578 25.4487C135.582 27.5692 134.432 28.5682 132.128 28.4454Z" fill="#2C8388"/>
<path d="M123.392 34.1807C122.893 36.0594 122.395 37.9354 121.896 39.8141C121.613 39.8683 121.474 39.7925 121.571 39.4974C122.078 37.2938 122.586 35.0903 123.093 32.8867C123.963 33.1601 123.287 33.753 123.392 34.1834V34.1807Z" fill="#6C7BB3"/>
<path d="M126.725 25.2722C126.366 26.3658 125.998 27.4595 125.645 28.5558C125.494 29.0269 125.383 29.5169 124.75 29.6224C124.698 29.571 124.65 29.5196 124.599 29.4681C124.385 27.9359 125.206 26.6501 125.722 25.2911C125.89 25.1314 126.098 25.0691 126.335 25.0745C126.489 25.0962 126.617 25.1612 126.725 25.2695V25.2722Z" fill="#413D3E"/>
<path d="M123.392 34.179C123.253 33.754 123.472 33.2559 123.093 32.8823C123.375 31.7697 123.657 30.6544 123.94 29.5418C124.025 29.4579 124.128 29.4037 124.248 29.3794C124.433 29.3604 124.604 29.4037 124.761 29.4985L124.752 29.6257C124.074 31.0848 124.125 32.7361 123.392 34.1817V34.179Z" fill="#BBBEC2"/>
<path d="M124.211 29.5276L124.077 29.5655L123.94 29.5412C123.358 28.8292 123.486 28.0956 123.857 27.3512C124.37 26.6094 124.025 25.6078 124.687 24.9094C124.812 24.839 124.949 24.8011 125.094 24.793C125.405 24.8227 125.673 24.9013 125.676 25.2694C125.026 26.6392 124.955 28.1849 124.213 29.5276H124.211Z" fill="#3F3A3C"/>
<path d="M121.57 39.4922C121.679 39.5978 121.787 39.7033 121.895 39.8089C121.414 41.6497 120.929 43.4932 120.447 45.3341C120.498 43.3173 120.946 41.3871 121.57 39.4922Z" fill="#8F9BC8"/>
<path d="M128.45 22.8419C128.721 22.915 128.989 22.9854 129.26 23.0585C129.2 23.3481 128.955 23.3671 128.715 23.3887C127.988 23.6703 127.666 24.4337 126.942 24.7233C126.414 24.7991 125.893 24.8641 125.551 24.3416C125.704 23.451 126.377 23.1018 127.21 22.9177C127.618 22.8202 128.031 22.7363 128.453 22.8419H128.45Z" fill="#B5C1CA"/>
<path d="M123.29 20.9414C123.321 21.4909 123.327 22.0567 124.174 21.9972C124.419 21.943 124.533 22.0757 124.607 22.2652C124.647 22.7551 124.884 23.2587 124.499 23.7216C124.299 23.8109 124.111 23.8136 123.946 23.6539C122.976 22.9122 123.019 21.9511 123.293 20.9414H123.29Z" fill="#A8ACBA"/>
<path d="M127.053 24.491C127.509 23.9929 127.678 23.1104 128.713 23.3892C128.464 24.4098 127.675 24.916 126.725 25.2706C126.631 25.2652 126.537 25.2598 126.443 25.2544C126.09 24.5993 126.757 24.6778 127.053 24.4883V24.491Z" fill="#6F7579"/>
<path d="M124.784 24.9694C124.407 25.7869 124.436 26.6965 124.145 27.5168C123.988 27.9607 123.98 27.3841 123.854 27.3543C123.977 26.4881 124.1 25.6191 124.222 24.7528C124.53 24.5444 124.724 24.6012 124.781 24.9721L124.784 24.9694Z" fill="#1D1C1D"/>
<path d="M124.784 24.9653C124.664 24.7379 124.456 24.7135 124.225 24.746C123.985 24.4157 123.829 24.0665 123.946 23.6523C124.105 23.6632 124.268 23.6713 124.427 23.6821C124.818 23.693 125.038 23.9231 125.206 24.2208C125.294 24.4807 125.291 24.7271 125.089 24.9463C124.986 24.9517 124.886 24.9599 124.784 24.9653Z" fill="#7A8087"/>
<path d="M179.721 21.2196C179.154 17.7519 176.936 15.5348 173.295 14.9961C169.86 14.4898 166.387 14.904 162.934 14.7416C161.868 14.6902 161.591 14.9663 161.603 15.9842C161.66 21.5012 161.631 27.0155 161.631 32.5325C161.631 38.1822 161.631 43.8346 161.631 49.4842C161.631 50.0419 161.437 50.6347 162.481 50.6158C165.703 50.5535 168.93 50.678 172.149 50.5535C176.215 50.3965 178.872 48.2308 179.633 44.5952C179.853 43.5476 179.93 42.4594 179.938 41.3874C179.969 36.8124 179.967 32.2374 179.947 27.6652C179.938 25.5158 180.072 23.3636 179.721 21.2196ZM173.874 41.7799C173.874 44.6737 173.058 45.4317 169.988 45.4344C168.406 45.4344 167.616 44.6819 167.616 43.1767C167.616 39.6332 167.616 36.0896 167.616 32.546C167.616 28.7345 167.647 24.9202 167.593 21.1086C167.579 20.1747 167.852 19.9067 168.853 19.9067C173.378 19.9067 173.877 20.3507 173.877 24.6901C173.877 30.3858 173.88 36.0842 173.877 41.7799H173.874Z" fill="#FEFEFE"/>
<path d="M115.968 46.1964C115.988 43.9089 116.011 41.6187 115.911 39.334C115.8 36.7704 114.982 34.5046 112.236 33.105C114.528 31.8462 115.572 29.9485 115.817 27.6692C116.048 25.5279 116.102 23.3568 115.811 21.2236C115.27 17.2713 113.337 15.4982 109.126 14.9216C108.054 14.7754 106.95 14.7564 105.864 14.7754C103.321 14.8241 100.772 14.594 98.2344 14.9026C98.2002 17.274 98.1374 19.6427 98.1346 22.0141C98.1232 31.1207 98.1431 40.23 98.1089 49.3366C98.1061 50.2787 98.2486 50.7308 99.3948 50.6198C100.521 50.5088 101.676 50.5223 102.805 50.6171C103.865 50.7064 104.159 50.4032 104.142 49.3799C104.073 45.2977 104.105 41.2154 104.13 37.1331C104.13 36.7704 103.788 36.2371 104.544 36.0476C107.589 35.2788 109.873 36.8705 109.941 39.8862C109.987 41.995 109.941 44.1038 109.952 46.2127C109.958 47.3794 109.961 48.5462 110.237 49.6913C110.337 50.1081 110.337 50.6062 111.027 50.6008C112.849 50.5873 114.674 50.5954 116.593 50.5954C116.079 49.0524 115.957 47.6366 115.968 46.1964ZM109.864 28.013C109.602 30.2707 106.654 31.7866 104.47 30.8744C103.991 30.674 104.122 30.2842 104.119 29.9512C104.105 28.4272 104.113 26.9004 104.113 25.3763C104.113 23.9415 104.153 22.5041 104.096 21.072C104.062 20.2437 104.242 19.9053 105.248 19.9026C109.131 19.8945 109.944 20.5956 109.947 24.2501C109.947 25.5062 110.007 26.7704 109.864 28.013Z" fill="white"/>
<path d="M201.886 22.5319C201.795 17.7512 198.778 14.9927 193.746 14.8249C190.764 14.7247 187.773 14.8167 184.788 14.7437C183.838 14.7193 183.627 14.9954 183.633 15.8563C183.673 21.4193 183.653 26.9823 183.653 32.5454C183.653 38.1084 183.673 43.8501 183.633 49.5025C183.627 50.3579 183.827 50.6395 184.785 50.6178C187.628 50.5529 190.476 50.607 193.318 50.5908C198.561 50.5637 201.783 47.7862 201.883 42.8485C202.023 36.0754 202.017 29.2996 201.883 22.5265L201.886 22.5319ZM195.944 41.6953C195.938 44.8409 193.067 46.6249 189.991 45.4229C189.421 45.201 189.649 44.7435 189.646 44.3861C189.629 40.4879 189.635 36.5898 189.635 32.6916C189.635 28.8394 189.66 24.9845 189.615 21.1323C189.603 20.2526 189.763 19.9006 190.821 19.9033C195.391 19.9115 195.947 20.3987 195.947 24.7598C195.947 30.4068 195.956 36.051 195.944 41.698V41.6953Z" fill="white"/>
<path d="M55.2541 49.5458C54.8606 47.4288 54.4985 45.3065 54.1422 43.1842C52.5997 34.0288 51.063 24.8762 49.5319 15.7182C49.4236 15.0766 49.2297 14.7165 48.3887 14.7436C46.1135 14.8113 43.8355 14.7923 41.5603 14.7517C40.8019 14.7382 40.551 14.9304 40.4256 15.6857C38.4954 27.2747 36.5167 38.8555 34.5238 50.5988C36.1888 50.5988 37.7028 50.5609 39.2167 50.6151C39.9836 50.6421 40.1376 50.3471 40.2174 49.6947C40.4142 48.0921 40.762 46.5084 40.9616 44.9086C41.0414 44.2724 41.2666 44.1046 41.9252 44.1181C43.7727 44.1614 45.626 44.1533 47.4735 44.1208C48.1207 44.11 48.3858 44.2859 48.4542 44.9302C48.6025 46.3108 48.9133 47.6779 49.0387 49.0585C49.1442 50.2117 49.5091 50.8127 50.909 50.6259C52.0267 50.477 53.187 50.523 54.3189 50.6178C55.3197 50.7017 55.3966 50.3011 55.2541 49.5431V49.5458ZM45.8968 39.2562C44.9103 39.1641 43.9039 39.175 42.9146 39.2562C41.9395 39.3347 41.8483 38.9828 41.9823 38.1788C42.8632 32.8729 43.6958 27.5616 44.5425 22.2503C44.6167 22.2341 44.6936 22.2178 44.7678 22.2016C45.0985 24.2238 45.4321 26.2433 45.7571 28.2682C46.2674 31.4544 46.7094 34.6487 47.3081 37.8187C47.5476 39.0938 47.1228 39.3699 45.8968 39.2562Z" fill="white"/>
<path d="M124.476 22.3002C124.376 22.2 124.273 22.1026 124.174 22.0024C123.954 21.6397 123.863 21.2715 123.977 20.8465C125.345 15.7518 126.702 10.657 128.068 5.56232C128.125 5.35117 128.239 5.15356 128.367 4.84766C128.995 5.38907 129.029 6.02523 129.029 6.67764C129.029 11.2472 129.026 15.8167 129.029 20.3836C129.029 21.2444 128.789 22.0565 128.453 22.8443C128.157 23.207 127.746 23.1069 127.355 23.0798C126.261 23.2639 125.28 23.0798 124.479 22.2975L124.476 22.3002Z" fill="#2577BB"/>
<path d="M124.211 29.5302C124.507 28.2227 124.801 26.9125 125.106 25.6076C125.166 25.3559 125.419 25.2963 125.648 25.2314C125.75 25.1853 125.836 25.2043 125.907 25.2909C125.642 26.723 124.872 28.0305 124.764 29.5004C124.581 29.5112 124.396 29.5221 124.213 29.5302H124.211Z" fill="#080809"/>
<path d="M125.904 25.2866C125.821 25.2568 125.736 25.2379 125.645 25.227C125.531 25.0023 125.302 24.9861 125.086 24.9455C125.063 24.6964 125.04 24.4447 125.015 24.1956C125.22 24.0495 125.417 24.0522 125.608 24.22C126.021 24.6396 126.571 24.3987 127.05 24.488C126.816 24.7208 126.449 24.8589 126.44 25.2541C126.26 25.2649 126.081 25.2758 125.901 25.2866H125.904Z" fill="#69B1C0"/>
<path d="M125.61 24.2216C125.414 24.2135 125.214 24.2054 125.017 24.1972C124.821 24.0267 124.624 23.8561 124.424 23.6829C124.769 23.2308 123.977 22.7435 124.476 22.2969C125.434 22.5568 126.394 22.8193 127.352 23.0792C126.771 23.4609 126.192 23.8399 125.61 24.2216Z" fill="#E6E8EA"/>
</svg>
