<svg width="32" height="32" viewBox="0 0 32 32" fill="none" xmlns="http://www.w3.org/2000/svg">
<path d="M12.0658 14.3181C11.9341 14.3049 11.7761 14.3049 11.6312 14.3181C8.4963 14.2127 6.00684 11.6442 6.00684 8.48302C6.00684 5.25594 8.61484 2.63477 11.8551 2.63477C15.0822 2.63477 17.7033 5.25594 17.7033 8.48302C17.6902 11.6442 15.2007 14.2127 12.0658 14.3181Z" stroke="white" stroke-width="1.18546" stroke-linecap="round" stroke-linejoin="round"/>
<path d="M21.6146 5.26758C24.1699 5.26758 26.2247 7.33554 26.2247 9.87769C26.2247 12.3671 24.2489 14.3956 21.7858 14.4878C21.6805 14.4746 21.5619 14.4746 21.4434 14.4878" stroke="white" stroke-width="1.18546" stroke-linecap="round" stroke-linejoin="round"/>
<path d="M5.47954 19.177C2.29198 21.3108 2.29198 24.7881 5.47954 26.9088C9.10177 29.3324 15.0422 29.3324 18.6645 26.9088C21.852 24.775 21.852 21.2976 18.6645 19.177C15.0554 16.7665 9.11494 16.7665 5.47954 19.177Z" stroke="white" stroke-width="1.18546" stroke-linecap="round" stroke-linejoin="round"/>
<path d="M24.1572 26.3445C25.1056 26.1469 26.0013 25.7649 26.7389 25.1985C28.7937 23.6574 28.7937 21.1153 26.7389 19.5742C26.0144 19.021 25.1319 18.6522 24.1967 18.4414" stroke="white" stroke-width="1.18546" stroke-linecap="round" stroke-linejoin="round"/>
</svg>
