<svg width="727" height="423" viewBox="0 0 727 423" fill="none" xmlns="http://www.w3.org/2000/svg">
<g opacity="0.42">
<mask id="mask0_690_144" style="mask-type:alpha" maskUnits="userSpaceOnUse" x="12" y="22" width="685" height="363">
<rect x="12.1133" y="22.3555" width="684.887" height="362.646" rx="37" fill="#21A282"/>
</mask>
<g mask="url(#mask0_690_144)">
<path d="M0.363464 384.829C307.162 351 387.75 132.566 389.694 27.5781C555.341 172.228 487.877 326.016 433.439 384.829H0.363464Z" fill="#C9F4B5"/>
<path d="M242.768 532.348C487.258 343.949 442.538 115.459 389.617 24.7641C606.32 62.2113 617.687 303.753 601.76 382.295L242.768 532.348Z" fill="#D6FDC3"/>
<path d="M418.946 551.605C590.571 295.062 475.305 92.7718 396.219 23.6948C613.548 -9.93658 729.44 267.509 739.397 347.028L418.946 551.605Z" fill="#21A282" fill-opacity="0.66"/>
<path d="M694.09 536.874C724.659 188.683 500.001 50.6866 383.851 25.2122C581.262 -126.603 791.211 49.1914 844.429 122.702L694.09 536.874Z" fill="#21A282"/>
</g>
</g>
</svg>
