<svg width="37" height="37" viewBox="0 0 37 37" fill="none" xmlns="http://www.w3.org/2000/svg">
<g clip-path="url(#clip0_120_352)">
<path d="M0 6.36279H37V30.636H0V6.36279Z" fill="white"/>
<path d="M16.9379 6.36279V16.5817H0V20.9084H16.9379V30.6371H20.3685V20.9084H37V16.5817H20.3685V6.36279H16.9379Z" fill="#BD0034"/>
<path d="M15.7932 6.36279H2.89062L15.7932 14.5224V6.36279Z" fill="#1A237B"/>
<path d="M0 15.14H9.09391L0 9.37378V15.14Z" fill="#1A237B"/>
<path d="M0 6.35938V7.77925L10.9138 14.593H13.594C13.594 14.593 2.83744 7.93072 0.282125 6.35938H0Z" fill="#BD0034"/>
<path d="M15.7932 30.6372H2.89062L15.7932 22.4775V30.6372Z" fill="#1A237B"/>
<path d="M0 21.8601H9.09391L0 27.6263V21.8601Z" fill="#1A237B"/>
<path d="M0 30.6406V29.2208L10.9138 22.407H13.594C13.594 22.407 2.83744 29.0693 0.282125 30.6406H0Z" fill="#BD0034"/>
<path d="M21.207 6.36279H34.1096L21.207 14.5224V6.36279Z" fill="#1A237B"/>
<path d="M37.0002 15.14H27.9062L37.0002 9.37378V15.14Z" fill="#1A237B"/>
<path d="M37.0003 6.35938V7.77925L26.0864 14.593H23.4062C23.4062 14.593 34.1594 7.93072 36.7182 6.36284L37.0003 6.35938Z" fill="#BD0034"/>
<path d="M21.207 30.6372H34.1096L21.207 22.4775V30.6372Z" fill="#1A237B"/>
<path d="M37.0002 21.8601H27.9062L37.0002 27.6263V21.8601Z" fill="#1A237B"/>
<path d="M37.0003 30.6406V29.2208L26.0864 22.407H23.4062C23.4062 22.407 34.1594 29.0693 36.7182 30.6372L37.0003 30.6406Z" fill="#BD0034"/>
</g>
<defs>
<clipPath id="clip0_120_352">
<rect width="37" height="37" fill="white"/>
</clipPath>
</defs>
</svg>
