<svg width="1915" height="293" viewBox="0 0 1915 293" fill="none" xmlns="http://www.w3.org/2000/svg">
<rect width="1913" height="293" fill="#2E2E2E" fill-opacity="0.78"/>
<path opacity="0.17" d="M1892.95 32.2808C1878.74 16.8651 1859.84 8.375 1839.73 8.375C1819.62 8.375 1800.72 16.8651 1786.51 32.2808C1772.29 47.6971 1764.46 68.1937 1764.46 89.9952C1764.46 111.797 1772.29 132.293 1786.51 147.71C1800.72 163.125 1819.62 171.615 1839.73 171.615C1859.84 171.615 1878.74 163.125 1892.95 147.71C1907.17 132.293 1915 111.797 1915 89.9952C1915 68.1937 1907.17 47.6971 1892.95 32.2808ZM1792.74 140.946C1780.19 127.336 1773.28 109.242 1773.28 89.9952C1773.28 72.3515 1779.09 55.679 1789.73 42.5391L1804.68 58.7551C1800.72 57.7686 1797.98 57.4973 1797.69 57.4705L1792.16 56.96L1792.95 62.9186C1793.06 63.702 1795.29 79.705 1804.42 91.6607C1797.17 95.7322 1792.36 101.714 1792.1 102.036L1789.62 105.16L1792.1 108.283C1792.49 108.777 1800.7 118.949 1812.01 121.718C1811.4 128.7 1811.93 129.091 1812.28 133.295C1817.65 134.48 1829.85 133.69 1835.32 129.305V149.198H1844.14V129.305C1849.84 133.576 1860.15 134.514 1867.18 133.295C1867.4 131.024 1867.63 129.931 1867.72 127.105L1883.49 144.214C1871.38 155.748 1856 162.05 1839.73 162.05C1821.98 162.05 1805.29 154.555 1792.74 140.946ZM1839.74 41.3594C1851.12 59.8059 1848.63 71.1097 1847.55 87.852C1860.44 73.3255 1867.56 70.552 1876.38 68.2048C1872.26 83.2618 1866.61 88.0589 1857.55 95.708C1863.94 97.0588 1873.62 100.361 1877.7 105.161C1875.11 107.591 1871.05 110.77 1866.4 112.151L1830.96 73.7244C1829.73 61.5764 1835.13 48.2873 1839.74 41.3594ZM1856.86 115.334C1857.64 117.948 1858.68 121.346 1858.82 124.194C1846.6 123.602 1844.32 116.071 1839.73 108.185C1833.71 120.167 1829.67 123.708 1820.64 124.195C1820.64 121.533 1822.51 115.633 1823.3 112.933C1811.74 113.691 1806.29 109.301 1801.77 105.165C1807.96 98.8637 1815.5 97.4593 1821.92 95.7051C1808.76 85.406 1805.91 77.7091 1803.14 68.201C1808.75 69.6102 1817.74 73.0268 1823.91 79.6065L1856.86 115.334ZM1889.73 137.451L1873.26 119.586C1881.47 115.582 1887.04 108.689 1887.36 108.284L1889.84 105.161L1887.36 102.037C1887.1 101.715 1882.29 95.7433 1875.06 91.6722C1884.41 79.5545 1886.42 63.6287 1886.52 62.852L1887.22 56.9435L1881.75 57.4727C1881.11 57.5349 1868.67 58.8255 1857.33 66.1933C1856.1 46.2933 1843.57 30.9286 1843.01 30.2521L1839.73 26.2852L1836.45 30.2514C1835.91 30.9063 1824.14 45.3308 1822.28 64.31L1795.97 35.7758C1808.08 24.2425 1823.46 17.9399 1839.73 17.9399C1857.48 17.9399 1874.17 25.4349 1886.72 39.0444C1899.27 52.6539 1906.18 70.7484 1906.18 89.9952C1906.18 107.639 1900.37 124.311 1889.73 137.451Z" fill="white" fill-opacity="0.24"/>
<path opacity="0.17" d="M1652.68 156.248C1638.76 141.153 1620.25 132.84 1600.57 132.84C1580.88 132.84 1562.37 141.153 1548.45 156.248C1534.53 171.343 1526.86 191.412 1526.86 212.76C1526.86 234.107 1534.53 254.176 1548.45 269.272C1562.37 284.366 1580.88 292.679 1600.57 292.679C1620.25 292.679 1638.76 284.366 1652.68 269.272C1666.6 254.176 1674.27 234.107 1674.27 212.76C1674.27 191.412 1666.6 171.343 1652.68 156.248ZM1554.56 262.649C1542.27 249.323 1535.5 231.605 1535.5 212.76C1535.5 195.484 1541.19 179.158 1551.61 166.292L1566.25 182.17C1562.37 181.204 1559.69 180.939 1559.4 180.913L1553.99 180.413L1554.76 186.247C1554.86 187.014 1557.05 202.684 1565.99 214.39C1558.9 218.377 1554.18 224.234 1553.93 224.55L1551.5 227.608L1553.93 230.667C1554.32 231.151 1562.35 241.11 1573.42 243.821C1572.82 250.658 1573.35 251.041 1573.68 255.157C1578.95 256.317 1590.89 255.544 1596.25 251.25V270.729H1604.88V251.25C1610.47 255.432 1620.56 256.351 1627.45 255.157C1627.66 252.933 1627.89 251.863 1627.97 249.096L1643.42 265.849C1631.55 277.142 1616.5 283.314 1600.57 283.314C1583.19 283.314 1566.85 275.975 1554.56 262.649ZM1600.57 165.137C1611.72 183.199 1609.28 194.268 1608.22 210.661C1620.84 196.437 1627.82 193.722 1636.46 191.423C1632.42 206.167 1626.89 210.864 1618.02 218.353C1624.27 219.676 1633.75 222.91 1637.74 227.609C1635.21 229.989 1631.23 233.101 1626.68 234.454L1591.98 196.828C1590.78 184.933 1596.07 171.921 1600.57 165.137ZM1617.34 237.57C1618.11 240.13 1619.13 243.457 1619.26 246.246C1607.29 245.666 1605.06 238.292 1600.57 230.571C1594.67 242.303 1590.71 245.77 1581.87 246.247C1581.87 243.64 1583.71 237.863 1584.47 235.219C1573.16 235.962 1567.82 231.663 1563.39 227.614C1569.45 221.443 1576.84 220.068 1583.12 218.351C1570.24 208.266 1567.45 200.729 1564.73 191.419C1570.23 192.799 1579.03 196.145 1585.08 202.587L1617.34 237.57ZM1649.53 259.227L1633.39 241.734C1641.44 237.813 1646.89 231.064 1647.2 230.668L1649.63 227.609L1647.2 224.551C1646.95 224.235 1642.24 218.388 1635.16 214.402C1644.32 202.536 1646.29 186.942 1646.38 186.182L1647.07 180.396L1641.71 180.915C1641.08 180.976 1628.91 182.239 1617.8 189.454C1616.6 169.968 1604.33 154.924 1603.78 154.261L1600.57 150.377L1597.35 154.261C1596.82 154.902 1585.3 169.026 1583.48 187.61L1557.71 159.67C1569.58 148.377 1584.63 142.205 1600.57 142.205C1617.95 142.205 1634.28 149.544 1646.57 162.87C1658.86 176.196 1665.63 193.914 1665.63 212.76C1665.63 230.036 1659.94 246.361 1649.53 259.227Z" fill="white" fill-opacity="0.24"/>
<path opacity="0.17" d="M1419.82 79.5777C1409.96 68.8901 1396.86 63.0039 1382.92 63.0039C1368.98 63.0039 1355.87 68.8901 1346.02 79.5777C1336.16 90.2658 1330.73 104.476 1330.73 119.591C1330.73 134.706 1336.16 148.916 1346.02 159.604C1355.87 170.292 1368.98 176.178 1382.92 176.178C1396.86 176.178 1409.96 170.292 1419.82 159.604C1429.67 148.916 1435.1 134.706 1435.1 119.591C1435.1 104.476 1429.67 90.2658 1419.82 79.5777ZM1350.34 154.915C1341.64 145.479 1336.85 132.935 1336.85 119.591C1336.85 107.359 1340.88 95.7996 1348.25 86.6898L1358.62 97.9322C1355.87 97.2483 1353.97 97.0602 1353.77 97.0416L1349.94 96.6877L1350.49 100.819C1350.56 101.362 1352.1 112.457 1358.44 120.746C1353.41 123.568 1350.08 127.715 1349.9 127.939L1348.17 130.105L1349.9 132.27C1350.17 132.613 1355.86 139.664 1363.7 141.584C1363.27 146.425 1363.64 146.696 1363.88 149.61C1367.61 150.432 1376.07 149.884 1379.86 146.844V160.636H1385.97V146.844C1389.93 149.805 1397.07 150.456 1401.95 149.61C1402.1 148.036 1402.26 147.278 1402.32 145.319L1413.26 157.181C1404.86 165.177 1394.2 169.547 1382.92 169.547C1370.61 169.547 1359.04 164.35 1350.34 154.915ZM1382.92 85.8719C1390.81 98.6608 1389.09 106.498 1388.34 118.105C1397.28 108.034 1402.21 106.111 1408.33 104.484C1405.47 114.923 1401.55 118.248 1395.27 123.552C1399.7 124.488 1406.41 126.778 1409.24 130.105C1407.44 131.79 1404.63 133.994 1401.41 134.952L1376.84 108.31C1375.99 99.8882 1379.73 90.6749 1382.92 85.8719ZM1394.79 137.158C1395.34 138.97 1396.06 141.326 1396.16 143.301C1387.68 142.89 1386.1 137.669 1382.92 132.202C1378.74 140.509 1375.94 142.964 1369.68 143.301C1369.68 141.456 1370.98 137.365 1371.52 135.493C1363.51 136.019 1359.73 132.975 1356.6 130.108C1360.89 125.739 1366.12 124.766 1370.57 123.55C1361.44 116.409 1359.47 111.073 1357.55 104.481C1361.44 105.458 1367.67 107.827 1371.95 112.388L1394.79 137.158ZM1417.58 152.492L1406.16 140.106C1411.85 137.33 1415.71 132.551 1415.94 132.271L1417.66 130.105L1415.94 127.94C1415.76 127.716 1412.43 123.576 1407.41 120.754C1413.89 112.352 1415.29 101.311 1415.35 100.773L1415.85 96.6763L1412.05 97.0432C1411.61 97.0863 1402.98 97.9811 1395.12 103.089C1394.27 89.2925 1385.58 78.6403 1385.19 78.1712L1382.92 75.421L1380.64 78.1708C1380.27 78.6248 1372.11 88.6252 1370.82 101.783L1352.58 82.0008C1360.98 74.0048 1371.64 69.6352 1382.92 69.6352C1395.22 69.6352 1406.79 74.8315 1415.49 84.2669C1424.19 93.7023 1428.99 106.247 1428.99 119.591C1428.99 131.823 1424.96 143.382 1417.58 152.492Z" fill="white" fill-opacity="0.24"/>
<path d="M346.736 79.2341C333.756 64.4605 316.498 56.3242 298.142 56.3242C279.786 56.3242 262.528 64.4605 249.548 79.2341C236.568 94.0076 229.419 113.651 229.419 134.544C229.419 155.436 236.568 175.079 249.548 189.853C262.528 204.627 279.786 212.763 298.142 212.763C316.498 212.763 333.756 204.627 346.736 189.853C359.716 175.079 366.864 155.436 366.864 134.544C366.864 113.651 359.716 94.0076 346.736 79.2341ZM237.473 134.544C237.473 116.099 243.783 98.7579 255.243 85.7161C266.701 72.6732 281.937 65.4905 298.142 65.4905C312.998 65.4905 327.036 71.531 338.099 82.5831L252.49 180.022C242.78 167.43 237.473 151.452 237.473 134.544ZM341.041 183.371C329.583 196.414 314.347 203.597 298.142 203.597C283.286 203.597 269.248 197.556 258.185 186.504L343.794 89.0652C353.504 101.657 358.811 117.635 358.811 134.544C358.811 152.988 352.5 170.329 341.041 183.371Z" fill="white" fill-opacity="0.05"/>
<path d="M346.464 120.797H327.672V148.296H346.464C348.688 148.296 350.49 146.244 350.49 143.713V125.38C350.49 122.849 348.688 120.797 346.464 120.797Z" fill="white" fill-opacity="0.05"/>
<path d="M245.797 125.38V143.713C245.797 146.244 247.599 148.296 249.824 148.296H268.98L293.14 120.797H249.824C247.599 120.797 245.797 122.849 245.797 125.38Z" fill="white" fill-opacity="0.05"/>
<path d="M319.619 148.295V129.547L303.147 148.295H319.619Z" fill="white" fill-opacity="0.05"/>
<path d="M81.4972 171.617H93.5703V189.285H81.4972C80.0683 189.285 78.9101 187.967 78.9101 186.34V174.562C78.9101 172.935 80.0683 171.617 81.4972 171.617Z" fill="white" fill-opacity="0.05"/>
<path d="M81.3248 144.914C89.6641 135.423 100.752 130.195 112.546 130.195C124.339 130.195 135.427 135.423 143.767 144.914C152.106 154.406 156.699 167.027 156.699 180.45C156.699 193.873 152.106 206.494 143.767 215.985C135.427 225.477 124.339 230.704 112.546 230.704C100.752 230.704 89.6641 225.477 81.3248 215.985C72.9854 206.494 68.3927 193.873 68.3927 180.45C68.3927 167.027 72.9854 154.406 81.3248 144.914ZM151.525 180.45C151.525 168.599 147.47 157.458 140.108 149.079C132.746 140.699 122.957 136.085 112.546 136.085C103.001 136.085 93.982 139.965 86.8742 147.066L141.876 209.669C148.115 201.579 151.525 191.313 151.525 180.45ZM84.9837 211.821C92.3455 220.2 102.134 224.815 112.546 224.815C122.09 224.815 131.109 220.934 138.217 213.834L83.2152 151.231C76.9766 159.321 73.5669 169.586 73.5669 180.45C73.5669 192.3 77.6213 203.442 84.9837 211.821Z" fill="white" fill-opacity="0.05"/>
<path d="M146.174 174.562V186.34C146.174 187.967 145.016 189.285 143.587 189.285H131.28L115.757 171.617H143.587C145.016 171.617 146.174 172.935 146.174 174.562Z" fill="white" fill-opacity="0.05"/>
<path d="M98.7482 189.284V177.238L109.331 189.284H98.7482Z" fill="white" fill-opacity="0.05"/>
<path d="M531.836 63.2973C540.176 53.8056 551.264 48.5781 563.057 48.5781C574.851 48.5781 585.939 53.8056 594.278 63.2973C602.618 72.7891 607.21 85.4094 607.21 98.8327C607.21 112.256 602.618 124.876 594.278 134.368C585.939 143.86 574.851 149.087 563.057 149.087C551.264 149.087 540.176 143.86 531.836 134.368C523.497 124.876 518.904 112.256 518.904 98.8327C518.904 85.4094 523.497 72.7891 531.836 63.2973ZM602.036 98.8327C602.036 86.9822 597.982 75.841 590.619 67.4619C583.258 59.0821 573.469 54.4673 563.057 54.4673C553.513 54.4673 544.494 58.3482 537.386 65.449L592.388 128.052C598.627 119.962 602.036 109.696 602.036 98.8327ZM535.495 130.203C542.857 138.583 552.646 143.198 563.057 143.198C572.602 143.198 581.621 139.317 588.729 132.216L533.727 69.6136C527.488 77.7036 524.079 87.9691 524.079 98.8327C524.079 110.683 528.133 121.824 535.495 130.203Z" fill="white" fill-opacity="0.05"/>
<path d="M532.008 90H544.081V107.668H532.008C530.579 107.668 529.421 106.349 529.421 104.723V92.9446C529.421 91.3182 530.579 90 532.008 90Z" fill="white" fill-opacity="0.05"/>
<path d="M596.686 92.9446V104.723C596.686 106.349 595.528 107.668 594.099 107.668H581.791L566.269 90H594.099C595.528 90 596.686 91.3182 596.686 92.9446Z" fill="white" fill-opacity="0.05"/>
<path d="M549.255 107.666V95.6211L559.838 107.666H549.255Z" fill="white" fill-opacity="0.05"/>
</svg>
